<svg xmlns="http://www.w3.org/2000/svg" viewBox="0 0 800 300" preserveAspectRatio="xMidYMid slice"><defs><linearGradient id="s" x1="0" y1="0" x2="1" y2="1"><stop offset="0" stop-color="#7c3aed"/><stop offset="1" stop-color="#db2777"/></linearGradient></defs><rect width="800" height="300" fill="url(#s)"/><circle cx="40" cy="100" r="60" fill="#fff" opacity="0.20"/><circle cx="291" cy="33" r="91" fill="#fff" opacity="0.29"/><circle cx="364" cy="224" r="33" fill="#fff" opacity="0.26"/><circle cx="369" cy="10" r="66" fill="#fff" opacity="0.21"/><circle cx="557" cy="125" r="92" fill="#fff" opacity="0.21"/><circle cx="531" cy="49" r="38" fill="#fff" opacity="0.20"/><circle cx="674" cy="262" r="63" fill="#fff" opacity="0.18"/><rect x="85" y="72" width="36" height="36" transform="rotate(11 85 72)" fill="#fff" opacity="0.24"/><polygon points="374,-18 442,117 307,117" fill="none" stroke="#fff" stroke-width="3" opacity="0.38"/><circle cx="760" cy="85" r="69" fill="#fff" opacity="0.33"/><circle cx="581" cy="160" r="43" fill="#fff" opacity="0.12"/><polygon points="755,58 843,235 667,235" fill="none" stroke="#fff" stroke-width="3" opacity="0.37"/><rect x="595" y="26" width="38" height="38" transform="rotate(38 595 26)" fill="#fff" opacity="0.35"/><circle cx="499" cy="33" r="70" fill="#fff" opacity="0.14"/></svg>
